{"asset":{"generator":"3D Builder","version":"2.0"},"scene":0,"scenes":[{"nodes":[0]}],"nodes":[{"mesh":0,"matrix":[39.370079040527344,0,0,0,0,-4.6932791519793682E-6,-39.370075225830078,0,0,39.370075225830078,-4.6932791519793682E-6,0,0,0.34257158637046814,-6.5061044551839586E-8,1]}],"meshes":[{"primitives":[{"attributes":{"POSITION":0,"TEXCOORD_0":1},"mode":4,"indices":2,"material":0}]}],"materials":[{"pbrMetallicRoughness":{"baseColorFactor":[1,1,1,1],"metallicFactor":1,"roughnessFactor":1,"baseColorTexture":{"index":0,"texCoord":0},"metallicRoughnessTexture":{"index":1,"texCoord":0}},"alphaMode":"OPAQUE"}],"textures":[{"source":0,"sampler":0},{"source":1,"sampler":0}],"images":[{"uri":"Hoodie_baseColor.jpeg"},{"uri":"Hoodie_metallicRoughness_10852638490067281019.png"}],"samplers":[{"magFilter":9729,"wrapS":10497,"wrapT":10497}],"accessors":[{"bufferView":0,"byteOffset":0,"count":2085,"componentType":5126,"type":"VEC3","min":[-0.0099999997764825821,-0.003131720470264554,-0.0087013188749551773],"max":[0.00999199878424406,0.00312427943572402,0.0086986804381012917]},{"bufferView":1,"byteOffset":0,"count":2085,"componentType":5126,"type":"VEC2"},{"bufferView":2,"byteOffset":0,"count":9492,"componentType":5125,"type":"SCALAR"}],"bufferViews":[{"buffer":0,"byteOffset":0,"byteLength":25020,"byteStride":12,"target":34962},{"buffer":0,"byteOffset":25020,"byteLength":16680,"byteStride":8,"target":34962},{"buffer":0,"byteOffset":41700,"byteLength":37968,"target":34963}],"buffers":[{"byteLength":79668,"uri":"scene.bin"}]}