{"asset":{"generator":"3D Builder","version":"2.0"},"scene":0,"scenes":[{"nodes":[0]}],"nodes":[{"children":[1,2]},{"mesh":0,"matrix":[39.3699951171875,0,0,0,0,-4.6932691475376487E-6,-39.369991302490234,0,0,39.369991302490234,-4.6932691475376487E-6,0,0,0.34257230162620544,-6.5061115606113162E-8,1]},{"mesh":1,"matrix":[63.469268798828125,0,0,0,0,-6.2166741372493561E-6,-52.149234771728516,0,0,52.149234771728516,-6.2166741372493561E-6,0,-0.0013268528273329139,0.26905456185340881,-0.0056017981842160225,1]}],"meshes":[{"primitives":[{"attributes":{"POSITION":0,"TEXCOORD_0":2},"mode":4,"indices":4,"material":0},{"attributes":{"POSITION":1,"COLOR_0":3},"mode":4,"indices":5}]},{"primitives":[{"attributes":{"POSITION":6,"TEXCOORD_0":8},"mode":4,"indices":10,"material":0},{"attributes":{"POSITION":7,"COLOR_0":9},"mode":4,"indices":11}]}],"materials":[{"pbrMetallicRoughness":{"baseColorFactor":[1,1,1,1],"metallicFactor":1,"roughnessFactor":1,"baseColorTexture":{"index":0,"texCoord":0},"metallicRoughnessTexture":{"index":1,"texCoord":0}},"alphaMode":"OPAQUE"}],"textures":[{"source":0,"sampler":0},{"source":1,"sampler":0}],"images":[{"uri":"Hoodie_baseColor.jpeg"},{"uri":"Hoodie_metallicRoughness_10852638490067281019.png"}],"samplers":[{"magFilter":9729,"wrapS":10497,"wrapT":10497}],"accessors":[{"bufferView":0,"byteOffset":0,"count":1657,"componentType":5126,"type":"VEC3","min":[-0.010000000707805157,-0.0030197203159332275,-0.0087013198062777519],"max":[0.0099919997155666351,0.003124280134215951,0.0035899602808058262]},{"bufferView":0,"byteOffset":19884,"count":75,"componentType":5126,"type":"VEC3","min":[-0.001658290158957243,-0.0015783901326358318,0.0035899602808058262],"max":[0.001713200006633997,0.0017255301354452968,0.0035899602808058262]},{"bufferView":1,"byteOffset":0,"count":1657,"componentType":5126,"type":"VEC2"},{"bufferView":2,"byteOffset":0,"count":75,"componentType":5121,"type":"VEC4","normalized":true},{"bufferView":3,"byteOffset":0,"count":7485,"componentType":5125,"type":"SCALAR"},{"bufferView":3,"byteOffset":29940,"count":219,"componentType":5125,"type":"SCALAR"},{"bufferView":4,"byteOffset":0,"count":509,"componentType":5126,"type":"VEC3","min":[-0.0019760001450777054,-0.0031317202374339104,0.0035899602808058262],"max":[0.0019120000069960952,0.0017322801286354661,0.0086986804381012917]},{"bufferView":4,"byteOffset":6108,"count":75,"componentType":5126,"type":"VEC3","min":[-0.001658290158957243,-0.0015783901326358318,0.0035899602808058262],"max":[0.001713200006633997,0.0017255301354452968,0.0035899602808058262]},{"bufferView":5,"byteOffset":0,"count":509,"componentType":5126,"type":"VEC2"},{"bufferView":6,"byteOffset":0,"count":75,"componentType":5121,"type":"VEC4","normalized":true},{"bufferView":7,"byteOffset":0,"count":2457,"componentType":5125,"type":"SCALAR"},{"bufferView":7,"byteOffset":9828,"count":219,"componentType":5125,"type":"SCALAR"}],"bufferViews":[{"buffer":0,"byteOffset":0,"byteLength":20784,"byteStride":12,"target":34962},{"buffer":0,"byteOffset":20784,"byteLength":13256,"byteStride":8,"target":34962},{"buffer":0,"byteOffset":34040,"byteLength":300,"byteStride":4,"target":34962},{"buffer":0,"byteOffset":34340,"byteLength":30816,"target":34963},{"buffer":0,"byteOffset":65156,"byteLength":7008,"byteStride":12,"target":34962},{"buffer":0,"byteOffset":72164,"byteLength":4072,"byteStride":8,"target":34962},{"buffer":0,"byteOffset":76236,"byteLength":300,"byteStride":4,"target":34962},{"buffer":0,"byteOffset":76536,"byteLength":10704,"target":34963}],"buffers":[{"byteLength":87240,"uri":"scene.bin"}]}